<?xml version="1.0" standalone="no"?>
<!DOCTYPE svg PUBLIC "-//W3C//DTD SVG 20010904//EN"
 "http://www.w3.org/TR/2001/REC-SVG-20010904/DTD/svg10.dtd">
<svg version="1.0" xmlns="http://www.w3.org/2000/svg"
 width="500.000000pt" height="500.000000pt" viewBox="0 0 500.000000 500.000000"
 preserveAspectRatio="xMidYMid meet">

<g transform="translate(0.000000,500.000000) scale(0.100000,-0.100000)"
fill="#000000" stroke="none">
<path d="M2365 4520 c-81 -17 -324 -95 -555 -178 -47 -17 -256 -90 -465 -161
-209 -71 -479 -164 -600 -206 -121 -42 -236 -82 -255 -88 -54 -17 -72 -36 -66
-72 3 -16 15 -143 26 -282 11 -139 31 -330 45 -425 24 -166 84 -432 102 -448
4 -5 163 -81 353 -170 190 -89 453 -213 585 -275 219 -103 469 -220 635 -298
36 -16 178 -84 315 -150 138 -66 264 -126 282 -133 32 -14 33 -14 105 48 126
107 273 240 276 249 2 5 -7 13 -20 18 -24 9 -389 179 -583 271 -110 52 -557
263 -690 325 -38 18 -124 58 -190 90 -66 31 -133 62 -150 69 -123 52 -388 185
-421 212 -86 69 -135 173 -158 336 -27 190 -38 289 -33 303 3 7 118 49 259 95
139 45 472 153 740 240 544 178 590 189 750 169 102 -12 211 -47 818 -264 195
-69 439 -156 543 -192 140 -49 187 -70 187 -82 -1 -33 -63 -387 -110 -625 -31
-154 -49 -130 181 -246 111 -56 208 -99 214 -96 27 10 124 499 150 756 19 191
21 553 3 567 -7 6 -107 42 -223 81 -115 39 -271 91 -345 117 -74 26 -283 98
-465 160 -181 62 -434 149 -561 193 -127 45 -266 88 -307 96 -100 21 -259 19
-372 -4z"/>
<path d="M1930 3363 c0 -7 -10 -13 -22 -13 -18 0 -20 -2 -8 -10 9 -6 20 -5 29
3 12 10 14 9 8 -5 -5 -16 -1 -17 40 -13 25 2 43 1 39 -2 -3 -3 4 -17 14 -31
11 -13 20 -31 20 -38 0 -8 5 -14 10 -14 14 0 13 5 -9 48 -10 20 -16 42 -14 49
3 7 -3 9 -18 6 -14 -4 -20 -2 -16 4 4 6 0 14 -8 17 -13 4 -14 2 -5 -14 6 -12
7 -20 1 -20 -5 0 -12 6 -15 13 -5 9 -7 9 -12 -2 -5 -11 -10 -8 -20 10 -7 13
-13 18 -14 12z"/>
<path d="M1850 3340 c-8 -5 -13 -10 -10 -11 52 -8 60 -7 46 7 -17 17 -17 16
-36 4z"/>
<path d="M2045 3330 c-3 -5 -1 -10 4 -10 6 0 11 5 11 10 0 6 -2 10 -4 10 -3 0
-8 -4 -11 -10z"/>
<path d="M1765 3312 c-22 -9 -43 -20 -47 -26 -4 -5 -23 -10 -42 -9 -20 1 -33
-3 -30 -8 3 -5 -2 -10 -10 -10 -17 -2 -35 -5 -38 -9 -2 -1 -12 -3 -22 -5 -46
-9 -66 -16 -66 -24 0 -5 -9 -7 -20 -4 -13 3 -20 0 -20 -8 0 -11 -2 -11 -10 1
-6 10 -10 11 -10 3 0 -7 -3 -12 -7 -12 -5 1 -17 1 -28 0 -16 -1 -17 -3 -5 -10
8 -6 17 -8 21 -5 4 2 9 -1 11 -6 2 -6 13 -12 26 -13 12 0 22 -5 22 -10 0 -4 5
-5 10 -2 6 3 10 2 10 -3 0 -6 14 -15 30 -21 17 -5 30 -7 30 -4 0 3 8 0 18 -8
9 -8 58 -34 107 -58 120 -57 128 -60 145 -63 8 -2 21 -9 29 -16 7 -7 21 -10
29 -7 9 3 13 3 9 -1 -7 -7 200 -113 228 -118 6 -1 21 -9 35 -19 13 -9 28 -17
32 -17 5 0 61 -25 126 -56 64 -31 144 -68 177 -84 33 -16 114 -54 180 -86 200
-95 347 -165 405 -191 30 -14 134 -64 230 -110 96 -46 239 -114 317 -150 78
-35 144 -71 147 -79 3 -8 -9 -45 -28 -82 -129 -256 -529 -674 -916 -958 -122
-90 -283 -194 -299 -194 -18 0 -185 112 -301 203 -143 112 -308 264 -469 433
-249 261 -277 287 -363 344 -50 32 -142 85 -206 116 -119 59 -394 174 -400
169 -3 -3 30 -69 116 -225 206 -377 584 -826 933 -1106 211 -170 465 -339 635
-422 l54 -26 58 28 c289 140 697 428 952 673 216 207 462 519 609 773 18 30
36 62 41 70 44 73 172 378 164 391 -6 11 -168 92 -324 164 -69 31 -156 72
-195 90 -82 39 -536 248 -645 297 -82 37 -215 99 -250 117 -38 20 -99 41 -114
40 -5 0 -12 3 -15 8 -10 16 -152 83 -162 77 -5 -3 -9 -1 -9 4 0 9 -74 46 -95
47 -5 0 -12 3 -15 6 -13 16 -142 70 -155 65 -8 -3 -14 0 -12 6 1 6 -4 13 -12
16 -9 3 -11 0 -6 -9 5 -8 -5 -2 -21 12 -32 29 -119 71 -128 61 -3 -3 -6 0 -6
7 0 7 -5 9 -10 6 -6 -4 -7 -11 -4 -17 4 -6 2 -8 -4 -4 -6 3 -13 2 -16 -3 -3
-4 15 -14 39 -21 53 -15 58 -24 13 -26 -18 -1 -54 -3 -80 -5 -25 -2 -50 0 -54
4 -14 13 19 27 49 21 26 -5 38 8 17 21 -15 10 -12 28 4 22 8 -3 17 1 20 9 3 9
1 12 -4 9 -6 -3 -13 1 -16 9 -3 9 -15 16 -25 16 -21 0 -26 -16 -6 -23 7 -2 8
-8 3 -13 -5 -5 -11 -4 -13 4 -3 6 -12 12 -21 11 -11 0 -12 -2 -4 -6 6 -2 12
-11 12 -19 0 -8 7 -11 18 -8 9 3 6 -1 -7 -9 -14 -8 -31 -12 -39 -9 -11 4 -13
0 -7 -16 4 -15 2 -22 -7 -23 -7 -1 -76 -2 -153 -2 -117 -2 -140 -4 -140 -17
-1 -16 -28 -15 -33 0 -3 8 -117 27 -134 22 -5 -1 -8 4 -8 11 0 8 21 12 65 13
66 1 89 9 68 22 -6 4 12 8 40 9 56 3 81 18 57 34 -13 8 -12 11 4 20 15 9 16
13 5 20 -17 11 -15 11 -64 -9z m-11 -41 c8 -12 -14 -19 -38 -13 -20 5 -20 5 0
13 26 10 32 10 38 0z m-72 -15 c7 4 8 2 4 -5 -4 -6 -11 -9 -16 -6 -5 3 -11 1
-15 -5 -8 -13 -25 -13 -25 0 0 6 7 10 15 10 8 0 15 6 16 13 0 9 2 9 6 -1 2 -6
10 -9 15 -6z m613 -46 c3 -5 2 -10 -4 -10 -5 0 -13 5 -16 10 -3 6 -2 10 4 10
5 0 13 -4 16 -10z m-765 -16 c0 -8 -4 -12 -10 -9 -5 3 -10 1 -10 -6 0 -7 -3
-9 -6 -6 -4 4 -1 13 6 22 16 19 20 19 20 -1z m755 -14 c3 -5 1 -10 -4 -10 -6
0 -11 5 -11 10 0 6 2 10 4 10 3 0 8 -4 11 -10z m48 -4 c4 -10 1 -13 -8 -9 -8
3 -12 9 -9 14 7 12 11 11 17 -5z m-173 -6 c0 -5 -8 -10 -17 -10 -15 0 -16 2
-3 10 19 12 20 12 20 0z m-477 -7 c3 -5 -6 -9 -19 -9 -13 -1 -24 2 -24 7 0 11
37 12 43 2z m177 3 c0 -2 -7 -7 -16 -10 -8 -3 -12 -2 -9 4 6 10 25 14 25 6z
m98 -3 c-16 -2 -40 -2 -55 0 -16 2 -3 4 27 4 30 0 43 -2 28 -4z m109 1 c-3 -3
-12 -4 -19 -1 -8 3 -5 6 6 6 11 1 17 -2 13 -5z m43 -10 c0 -2 -7 -4 -15 -4 -8
0 -15 4 -15 10 0 5 7 7 15 4 8 -4 15 -8 15 -10z m555 -152 c-3 -3 -11 0 -18 7
-9 10 -8 11 6 5 10 -3 15 -9 12 -12z"/>
<path d="M2070 3316 c0 -2 7 -9 15 -16 9 -7 15 -8 15 -2 0 5 -7 12 -15 16 -8
3 -15 4 -15 2z"/>
<path d="M1994 3254 c20 -19 20 -22 0 -20 -9 0 -19 -5 -21 -12 -4 -11 11 -11
66 -3 8 2 -42 51 -51 51 -5 0 -2 -7 6 -16z"/>
<path d="M1907 3243 c-9 -15 9 -35 28 -31 16 3 15 5 -3 21 -11 10 -22 14 -25
10z"/>
<path d="M1776 3233 c-11 -11 -6 -23 9 -23 8 0 15 4 15 9 0 13 -16 22 -24 14z"/>
<path d="M1832 3231 c-10 -6 -10 -10 2 -21 20 -16 48 -6 40 15 -7 17 -22 19
-42 6z"/>
</g>
</svg>
